<svg width="35" height="36" viewBox="0 0 35 36" fill="none" xmlns="http://www.w3.org/2000/svg">
<path d="M20.8128 4.51785L20.8121 4.51918L17.7603 9.80145C17.7602 9.8016 17.7602 9.80175 17.7601 9.8019C17.716 9.87689 17.6108 9.8769 17.5667 9.80192C17.5667 9.80177 17.5666 9.80161 17.5665 9.80145L14.5157 4.52081C14.5156 4.52064 14.5155 4.52048 14.5154 4.52031C14.4728 4.44505 14.5273 4.3517 14.6146 4.3517H16.139H16.639V3.8517V0.689417C16.6615 0.670831 16.6965 0.64645 16.7461 0.619918C16.8156 0.582757 16.8959 0.550971 16.9731 0.529082C17.0537 0.506245 17.1102 0.5 17.1343 0.5H18.581C18.6416 0.5 18.6915 0.549941 18.6915 0.6105V3.8517V4.3517H19.1915H20.7159C20.8028 4.3517 20.8544 4.44644 20.8128 4.51785Z" fill="black" stroke="black"/>
<g clip-path="url(#clip0_1_23)">
<path d="M22.0516 20.4464C22.0515 20.4464 22.0516 20.4464 22.0518 20.4464L22.0516 20.4464ZM22.0516 20.4464C22.0516 20.4464 22.0517 20.4464 22.0518 20.4465L22.0516 20.4464ZM16.9445 33.1917V33.7955L17.5377 33.6829L28.93 31.5221L29.3368 31.445V31.0309V24.0709L30.7061 24.284L30.7149 24.2854L30.7159 24.2855V32.3646L18.2534 35.0449C18.2534 35.045 18.2533 35.045 18.2533 35.045C17.7194 35.1596 17.1684 35.1598 16.6327 35.048L4.30222 32.4562L4.08811 24.25L14.5585 23.3263C14.5591 23.3263 14.5597 23.3262 14.5604 23.3262C14.9317 23.2951 15.2486 23.0555 15.3891 22.7228L15.3908 22.7188L16.9445 18.9491V33.1917ZM4.29698 32.4551L4.29395 32.4545L4.29247 32.4615L4.29698 32.4551ZM3.92601 14.4082L16.5552 12.0876L12.9679 20.1706L0.646011 21.4146L3.92601 14.4082ZM22.0557 20.4467L18.2472 12.0896L31.1524 14.4134L34.356 21.4364L22.0557 20.4467Z" fill="black" stroke="black"/>
</g>
<defs>
<clipPath id="clip0_1_23">
<rect width="35" height="25" fill="white" transform="translate(0 11)"/>
</clipPath>
</defs>
</svg>
